<svg xmlns="http://www.w3.org/2000/svg" width="1200" height="1140" viewBox="0 0 1200 1140">
<rect width="100%" height="100%" fill="#f5f8fc"/>
<title>更新与撤销的不同效果：状态与行动</title>
<desc>撤销未来入口与取消旧操作必须分别设计</desc>
<text x="600" y="58" text-anchor="middle" font-family="Heiti SC, PingFang SC, Noto Sans CJK SC, sans-serif" font-size="30" fill="#61758a">01 / 从源码理解 Agent Harness</text>
<text x="600" y="133" text-anchor="middle" font-family="Heiti SC, PingFang SC, Noto Sans CJK SC, sans-serif" font-size="46" fill="#16324e">更新与撤销的不同效果：状态与行动</text>
<rect x="130" y="175" width="940" height="110" rx="18" fill="#e7eff9" stroke="#cedcea" stroke-width="2"/>
<text x="600" y="241" text-anchor="middle" font-family="Heiti SC, PingFang SC, Noto Sans CJK SC, sans-serif" font-size="36" fill="#16324e">依据执行身份、当前状态与已提交事实选择</text>
<path d="M600,285 L600,312" fill="none" stroke="#6f8aa5" stroke-width="4"/>
<path d="M220,312 L980,312" fill="none" stroke="#6f8aa5" stroke-width="4"/>
<path d="M220,312 L220,352" fill="none" stroke="#6f8aa5" stroke-width="4"/>
<polygon points="220,352 212,338 228,338" fill="#6f8aa5"/>
<rect x="55" y="352" width="330" height="630" rx="18" fill="#eef7f2" stroke="#cedcea" stroke-width="2"/>
<text x="220" y="416" text-anchor="middle" font-family="Heiti SC, PingFang SC, Noto Sans CJK SC, sans-serif" font-size="38" fill="#16324e">volatile 更新</text>
<text x="220" y="507" text-anchor="middle" font-family="Heiti SC, PingFang SC, Noto Sans CJK SC, sans-serif" font-size="31" fill="#16324e">候选先解析校验</text>
<path d="M82,531 L358,531" fill="none" stroke="#6f8aa5" stroke-width="4"/>
<text x="220" y="620" text-anchor="middle" font-family="Heiti SC, PingFang SC, Noto Sans CJK SC, sans-serif" font-size="31" fill="#16324e">live 引用成功才变</text>
<path d="M82,644 L358,644" fill="none" stroke="#6f8aa5" stroke-width="4"/>
<text x="220" y="733" text-anchor="middle" font-family="Heiti SC, PingFang SC, Noto Sans CJK SC, sans-serif" font-size="31" fill="#16324e">实例可以保留</text>
<path d="M82,757 L358,757" fill="none" stroke="#6f8aa5" stroke-width="4"/>
<text x="220" y="846" text-anchor="middle" font-family="Heiti SC, PingFang SC, Noto Sans CJK SC, sans-serif" font-size="31" fill="#16324e">非法值不提交</text>
<path d="M82,870 L358,870" fill="none" stroke="#6f8aa5" stroke-width="4"/>
<path d="M600,312 L600,352" fill="none" stroke="#6f8aa5" stroke-width="4"/>
<polygon points="600,352 592,338 608,338" fill="#6f8aa5"/>
<rect x="435" y="352" width="330" height="630" rx="18" fill="#eef4fc" stroke="#cedcea" stroke-width="2"/>
<text x="600" y="416" text-anchor="middle" font-family="Heiti SC, PingFang SC, Noto Sans CJK SC, sans-serif" font-size="38" fill="#16324e">普通依赖变化</text>
<text x="600" y="507" text-anchor="middle" font-family="Heiti SC, PingFang SC, Noto Sans CJK SC, sans-serif" font-size="31" fill="#16324e">epoch 改变</text>
<path d="M462,531 L738,531" fill="none" stroke="#6f8aa5" stroke-width="4"/>
<text x="600" y="620" text-anchor="middle" font-family="Heiti SC, PingFang SC, Noto Sans CJK SC, sans-serif" font-size="31" fill="#16324e">旧 Fiber 卸载排空</text>
<path d="M462,644 L738,644" fill="none" stroke="#6f8aa5" stroke-width="4"/>
<text x="600" y="733" text-anchor="middle" font-family="Heiti SC, PingFang SC, Noto Sans CJK SC, sans-serif" font-size="31" fill="#16324e">按最新依赖重建</text>
<path d="M462,757 L738,757" fill="none" stroke="#6f8aa5" stroke-width="4"/>
<text x="600" y="846" text-anchor="middle" font-family="Heiti SC, PingFang SC, Noto Sans CJK SC, sans-serif" font-size="31" fill="#16324e">不是全树事务</text>
<path d="M462,870 L738,870" fill="none" stroke="#6f8aa5" stroke-width="4"/>
<path d="M980,312 L980,352" fill="none" stroke="#6f8aa5" stroke-width="4"/>
<polygon points="980,352 972,338 988,338" fill="#6f8aa5"/>
<rect x="815" y="352" width="330" height="630" rx="18" fill="#fff6ed" stroke="#cedcea" stroke-width="2"/>
<text x="980" y="416" text-anchor="middle" font-family="Heiti SC, PingFang SC, Noto Sans CJK SC, sans-serif" font-size="38" fill="#16324e">旧回调仍在途</text>
<text x="980" y="507" text-anchor="middle" font-family="Heiti SC, PingFang SC, Noto Sans CJK SC, sans-serif" font-size="31" fill="#16324e">listener 已撤销</text>
<path d="M842,531 L1118,531" fill="none" stroke="#6f8aa5" stroke-width="4"/>
<text x="980" y="620" text-anchor="middle" font-family="Heiti SC, PingFang SC, Noto Sans CJK SC, sans-serif" font-size="31" fill="#16324e">lifetime abort</text>
<path d="M842,644 L1118,644" fill="none" stroke="#6f8aa5" stroke-width="4"/>
<text x="980" y="733" text-anchor="middle" font-family="Heiti SC, PingFang SC, Noto Sans CJK SC, sans-serif" font-size="31" fill="#16324e">等待 active 结算</text>
<path d="M842,757 L1118,757" fill="none" stroke="#6f8aa5" stroke-width="4"/>
<text x="980" y="846" text-anchor="middle" font-family="Heiti SC, PingFang SC, Noto Sans CJK SC, sans-serif" font-size="31" fill="#16324e">捕获调用用 signal</text>
<text x="980" y="889" text-anchor="middle" font-family="Heiti SC, PingFang SC, Noto Sans CJK SC, sans-serif" font-size="31" fill="#16324e">停止</text>
<path d="M842,913 L1118,913" fill="none" stroke="#6f8aa5" stroke-width="4"/>
<text x="600" y="1054" text-anchor="middle" font-family="Heiti SC, PingFang SC, Noto Sans CJK SC, sans-serif" font-size="30" fill="#526b85">撤销未来入口与取消旧操作必须分别设计</text>
<text x="600" y="1102" text-anchor="middle" font-family="Heiti SC, PingFang SC, Noto Sans CJK SC, sans-serif" font-size="28" fill="#70859b">基线 5badb15009ae · 源码机制示意，非全量调用图</text>
</svg>
