<svg xmlns="http://www.w3.org/2000/svg" width="1200" height="1628" viewBox="0 0 1200 1628">
<rect width="100%" height="100%" fill="#f6f8fb"/>
<text x="600" y="61" text-anchor="middle" font-family="Heiti SC, PingFang SC, sans-serif" font-size="34" fill="#516781">01 / 从源码理解 Agent Harness</text>
<text x="600" y="135" text-anchor="middle" font-family="Heiti SC, PingFang SC, sans-serif" font-size="52" fill="#182d49">Goal、Driver 与 Loop 的交接</text>
<rect x="80" y="170" width="1040" height="154" rx="18" fill="white" stroke="#c5d1df" stroke-width="2"/>
<text x="600.0" y="238" text-anchor="middle" font-family="Heiti SC, PingFang SC, sans-serif" font-size="46" fill="#182d49">Goal service</text>
<text x="600.0" y="295" text-anchor="middle" font-family="Heiti SC, PingFang SC, sans-serif" font-size="34" fill="#516781">create / edit 生成 id 与 revision</text>
<line x1="600" y1="334" x2="600" y2="378" stroke="#7390ac" stroke-width="4"/><polygon points="600,378 591,364 609,364" fill="#7390ac"/>
<rect x="80" y="388" width="1040" height="154" rx="18" fill="white" stroke="#c5d1df" stroke-width="2"/>
<text x="600.0" y="456" text-anchor="middle" font-family="Heiti SC, PingFang SC, sans-serif" font-size="46" fill="#182d49">Session / goal/change</text>
<text x="600.0" y="513" text-anchor="middle" font-family="Heiti SC, PingFang SC, sans-serif" font-size="34" fill="#516781">提交目标事实后通知 consumer</text>
<line x1="600" y1="552" x2="600" y2="596" stroke="#7390ac" stroke-width="4"/><polygon points="600,596 591,582 609,582" fill="#7390ac"/>
<rect x="80" y="606" width="1040" height="154" rx="18" fill="white" stroke="#c5d1df" stroke-width="2"/>
<text x="600.0" y="674" text-anchor="middle" font-family="Heiti SC, PingFang SC, sans-serif" font-size="46" fill="#182d49">Driver / readyToDrive</text>
<text x="600.0" y="731" text-anchor="middle" font-family="Heiti SC, PingFang SC, sans-serif" font-size="34" fill="#516781">idle 与 activation；checkpoint 后复核</text>
<line x1="600" y1="770" x2="600" y2="814" stroke="#7390ac" stroke-width="4"/><polygon points="600,814 591,800 609,800" fill="#7390ac"/>
<rect x="80" y="824" width="1040" height="154" rx="18" fill="white" stroke="#c5d1df" stroke-width="2"/>
<text x="600.0" y="892" text-anchor="middle" font-family="Heiti SC, PingFang SC, sans-serif" font-size="46" fill="#182d49">RoundAttempt / Inbox</text>
<text x="600.0" y="949" text-anchor="middle" font-family="Heiti SC, PingFang SC, sans-serif" font-size="34" fill="#516781">先保存预留，再 followup 入队</text>
<line x1="600" y1="988" x2="600" y2="1032" stroke="#7390ac" stroke-width="4"/><polygon points="600,1032 591,1018 609,1018" fill="#7390ac"/>
<rect x="80" y="1042" width="1040" height="154" rx="18" fill="white" stroke="#c5d1df" stroke-width="2"/>
<text x="600.0" y="1110" text-anchor="middle" font-family="Heiti SC, PingFang SC, sans-serif" font-size="46" fill="#182d49">Loop / user/message</text>
<text x="600.0" y="1167" text-anchor="middle" font-family="Heiti SC, PingFang SC, sans-serif" font-size="34" fill="#516781">接纳后 fold 推进 roundsStarted</text>
<line x1="600" y1="1206" x2="600" y2="1250" stroke="#7390ac" stroke-width="4"/><polygon points="600,1250 591,1236 609,1236" fill="#7390ac"/>
<rect x="80" y="1260" width="1040" height="154" rx="18" fill="white" stroke="#c5d1df" stroke-width="2"/>
<text x="600.0" y="1328" text-anchor="middle" font-family="Heiti SC, PingFang SC, sans-serif" font-size="46" fill="#182d49">Completion / acceptance</text>
<text x="600.0" y="1385" text-anchor="middle" font-family="Heiti SC, PingFang SC, sans-serif" font-size="34" fill="#516781">Turn 结束、目标完成与业务验收分别确认</text>
<text x="600" y="1527" text-anchor="middle" font-family="Heiti SC, PingFang SC, sans-serif" font-size="34" fill="#516781">主线按交接展开；append 与 flush 是不同边界</text>
<text x="600" y="1582" text-anchor="middle" font-family="Heiti SC, PingFang SC, sans-serif" font-size="34" fill="#657a92">研究基线 5badb15009ae · 机制示意，非全量调用图</text>
</svg>
