<svg xmlns="http://www.w3.org/2000/svg" width="1200" height="1140" viewBox="0 0 1200 1140">
<rect width="100%" height="100%" fill="#f5f8fc"/>
<title>模型接缝的失败归属：状态与行动</title>
<desc>错误分类必须对应实际抛错边界</desc>
<text x="600" y="58" text-anchor="middle" font-family="Heiti SC, PingFang SC, Noto Sans CJK SC, sans-serif" font-size="30" fill="#61758a">03 / 从源码理解 Agent Harness</text>
<text x="600" y="133" text-anchor="middle" font-family="Heiti SC, PingFang SC, Noto Sans CJK SC, sans-serif" font-size="46" fill="#16324e">模型接缝的失败归属：状态与行动</text>
<rect x="130" y="175" width="940" height="110" rx="18" fill="#e7eff9" stroke="#cedcea" stroke-width="2"/>
<text x="600" y="241" text-anchor="middle" font-family="Heiti SC, PingFang SC, Noto Sans CJK SC, sans-serif" font-size="36" fill="#16324e">依据执行身份、当前状态与已提交事实选择</text>
<path d="M600,285 L600,312" fill="none" stroke="#6f8aa5" stroke-width="4"/>
<path d="M220,312 L980,312" fill="none" stroke="#6f8aa5" stroke-width="4"/>
<path d="M220,312 L220,352" fill="none" stroke="#6f8aa5" stroke-width="4"/>
<polygon points="220,352 212,338 228,338" fill="#6f8aa5"/>
<rect x="55" y="352" width="330" height="630" rx="18" fill="#eef7f2" stroke="#cedcea" stroke-width="2"/>
<text x="220" y="416" text-anchor="middle" font-family="Heiti SC, PingFang SC, Noto Sans CJK SC, sans-serif" font-size="38" fill="#16324e">准备失败</text>
<text x="220" y="507" text-anchor="middle" font-family="Heiti SC, PingFang SC, Noto Sans CJK SC, sans-serif" font-size="31" fill="#16324e">模型或能力不合法</text>
<path d="M82,531 L358,531" fill="none" stroke="#6f8aa5" stroke-width="4"/>
<text x="220" y="620" text-anchor="middle" font-family="Heiti SC, PingFang SC, Noto Sans CJK SC, sans-serif" font-size="31" fill="#16324e">没有 dispatch</text>
<path d="M82,644 L358,644" fill="none" stroke="#6f8aa5" stroke-width="4"/>
<text x="220" y="733" text-anchor="middle" font-family="Heiti SC, PingFang SC, Noto Sans CJK SC, sans-serif" font-size="31" fill="#16324e">保留错误来源</text>
<path d="M82,757 L358,757" fill="none" stroke="#6f8aa5" stroke-width="4"/>
<text x="220" y="846" text-anchor="middle" font-family="Heiti SC, PingFang SC, Noto Sans CJK SC, sans-serif" font-size="31" fill="#16324e">不假造 stream start</text>
<path d="M82,870 L358,870" fill="none" stroke="#6f8aa5" stroke-width="4"/>
<path d="M600,312 L600,352" fill="none" stroke="#6f8aa5" stroke-width="4"/>
<polygon points="600,352 592,338 608,338" fill="#6f8aa5"/>
<rect x="435" y="352" width="330" height="630" rx="18" fill="#eef4fc" stroke="#cedcea" stroke-width="2"/>
<text x="600" y="416" text-anchor="middle" font-family="Heiti SC, PingFang SC, Noto Sans CJK SC, sans-serif" font-size="38" fill="#16324e">供应商失败</text>
<text x="600" y="507" text-anchor="middle" font-family="Heiti SC, PingFang SC, Noto Sans CJK SC, sans-serif" font-size="31" fill="#16324e">dispatch /</text>
<text x="600" y="550" text-anchor="middle" font-family="Heiti SC, PingFang SC, Noto Sans CJK SC, sans-serif" font-size="31" fill="#16324e">iterator.next</text>
<path d="M462,574 L738,574" fill="none" stroke="#6f8aa5" stroke-width="4"/>
<text x="600" y="633" text-anchor="middle" font-family="Heiti SC, PingFang SC, Noto Sans CJK SC, sans-serif" font-size="31" fill="#16324e">规范化 failure</text>
<text x="600" y="676" text-anchor="middle" font-family="Heiti SC, PingFang SC, Noto Sans CJK SC, sans-serif" font-size="31" fill="#16324e">chunk</text>
<path d="M462,700 L738,700" fill="none" stroke="#6f8aa5" stroke-width="4"/>
<text x="600" y="759" text-anchor="middle" font-family="Heiti SC, PingFang SC, Noto Sans CJK SC, sans-serif" font-size="31" fill="#16324e">交给恢复政策</text>
<path d="M462,783 L738,783" fill="none" stroke="#6f8aa5" stroke-width="4"/>
<text x="600" y="872" text-anchor="middle" font-family="Heiti SC, PingFang SC, Noto Sans CJK SC, sans-serif" font-size="31" fill="#16324e">同 Step 再准备</text>
<path d="M462,896 L738,896" fill="none" stroke="#6f8aa5" stroke-width="4"/>
<path d="M980,312 L980,352" fill="none" stroke="#6f8aa5" stroke-width="4"/>
<polygon points="980,352 972,338 988,338" fill="#6f8aa5"/>
<rect x="815" y="352" width="330" height="630" rx="18" fill="#fff6ed" stroke="#cedcea" stroke-width="2"/>
<text x="980" y="416" text-anchor="middle" font-family="Heiti SC, PingFang SC, Noto Sans CJK SC, sans-serif" font-size="38" fill="#16324e">消费方失败</text>
<text x="980" y="507" text-anchor="middle" font-family="Heiti SC, PingFang SC, Noto Sans CJK SC, sans-serif" font-size="31" fill="#16324e">yield 下游抛错</text>
<path d="M842,531 L1118,531" fill="none" stroke="#6f8aa5" stroke-width="4"/>
<text x="980" y="620" text-anchor="middle" font-family="Heiti SC, PingFang SC, Noto Sans CJK SC, sans-serif" font-size="31" fill="#16324e">不冒充供应商异常</text>
<path d="M842,644 L1118,644" fill="none" stroke="#6f8aa5" stroke-width="4"/>
<text x="980" y="733" text-anchor="middle" font-family="Heiti SC, PingFang SC, Noto Sans CJK SC, sans-serif" font-size="31" fill="#16324e">清理未完成 iterator</text>
<path d="M842,757 L1118,757" fill="none" stroke="#6f8aa5" stroke-width="4"/>
<text x="980" y="846" text-anchor="middle" font-family="Heiti SC, PingFang SC, Noto Sans CJK SC, sans-serif" font-size="31" fill="#16324e">交给调用方处理</text>
<path d="M842,870 L1118,870" fill="none" stroke="#6f8aa5" stroke-width="4"/>
<text x="600" y="1054" text-anchor="middle" font-family="Heiti SC, PingFang SC, Noto Sans CJK SC, sans-serif" font-size="30" fill="#526b85">错误分类必须对应实际抛错边界</text>
<text x="600" y="1102" text-anchor="middle" font-family="Heiti SC, PingFang SC, Noto Sans CJK SC, sans-serif" font-size="28" fill="#70859b">基线 5badb15009ae · 源码机制示意，非全量调用图</text>
</svg>
