<svg xmlns="http://www.w3.org/2000/svg" width="1200" height="1628" viewBox="0 0 1200 1628">
<rect width="100%" height="100%" fill="#f6f8fb"/>
<text x="600" y="61" text-anchor="middle" font-family="Heiti SC, PingFang SC, sans-serif" font-size="34" fill="#516781">05 / 从源码理解 Agent Harness</text>
<text x="600" y="135" text-anchor="middle" font-family="Heiti SC, PingFang SC, sans-serif" font-size="52" fill="#182d49">会话持久化与恢复</text>
<rect x="80" y="170" width="1040" height="154" rx="18" fill="white" stroke="#c5d1df" stroke-width="2"/>
<text x="600.0" y="238" text-anchor="middle" font-family="Heiti SC, PingFang SC, sans-serif" font-size="46" fill="#182d49">Session.append</text>
<text x="600.0" y="295" text-anchor="middle" font-family="Heiti SC, PingFang SC, sans-serif" font-size="34" fill="#516781">校验、快照、seq、日志与通知</text>
<line x1="600" y1="334" x2="600" y2="378" stroke="#7390ac" stroke-width="4"/><polygon points="600,378 591,364 609,364" fill="#7390ac"/>
<rect x="80" y="388" width="1040" height="154" rx="18" fill="white" stroke="#c5d1df" stroke-width="2"/>
<text x="600.0" y="456" text-anchor="middle" font-family="Heiti SC, PingFang SC, sans-serif" font-size="46" fill="#182d49">live writer 缓冲</text>
<text x="600.0" y="513" text-anchor="middle" font-family="Heiti SC, PingFang SC, sans-serif" font-size="34" fill="#516781">事件等待有界批处理</text>
<line x1="600" y1="552" x2="600" y2="596" stroke="#7390ac" stroke-width="4"/><polygon points="600,596 591,582 609,582" fill="#7390ac"/>
<rect x="80" y="606" width="1040" height="154" rx="18" fill="white" stroke="#c5d1df" stroke-width="2"/>
<text x="600.0" y="674" text-anchor="middle" font-family="Heiti SC, PingFang SC, sans-serif" font-size="46" fill="#182d49">有序写入与 flush</text>
<text x="600.0" y="731" text-anchor="middle" font-family="Heiti SC, PingFang SC, sans-serif" font-size="34" fill="#516781">持久 handle 建立实际存储屏障</text>
<line x1="600" y1="770" x2="600" y2="814" stroke="#7390ac" stroke-width="4"/><polygon points="600,814 591,800 609,800" fill="#7390ac"/>
<rect x="80" y="824" width="1040" height="154" rx="18" fill="white" stroke="#c5d1df" stroke-width="2"/>
<text x="600.0" y="892" text-anchor="middle" font-family="Heiti SC, PingFang SC, sans-serif" font-size="46" fill="#182d49">写 open 与有效前缀</text>
<text x="600.0" y="949" text-anchor="middle" font-family="Heiti SC, PingFang SC, sans-serif" font-size="34" fill="#516781">先取得所有权，再读取日志</text>
<line x1="600" y1="988" x2="600" y2="1032" stroke="#7390ac" stroke-width="4"/><polygon points="600,1032 591,1018 609,1018" fill="#7390ac"/>
<rect x="80" y="1042" width="1040" height="154" rx="18" fill="white" stroke="#c5d1df" stroke-width="2"/>
<text x="600.0" y="1110" text-anchor="middle" font-family="Heiti SC, PingFang SC, sans-serif" font-size="46" fill="#182d49">逻辑闭合与重建</text>
<text x="600.0" y="1167" text-anchor="middle" font-family="Heiti SC, PingFang SC, sans-serif" font-size="34" fill="#516781">补 unknown 等事实，重建 Session</text>
<line x1="600" y1="1206" x2="600" y2="1250" stroke="#7390ac" stroke-width="4"/><polygon points="600,1250 591,1236 609,1236" fill="#7390ac"/>
<rect x="80" y="1260" width="1040" height="154" rx="18" fill="white" stroke="#c5d1df" stroke-width="2"/>
<text x="600.0" y="1328" text-anchor="middle" font-family="Heiti SC, PingFang SC, sans-serif" font-size="46" fill="#182d49">后续唤醒才执行</text>
<text x="600.0" y="1385" text-anchor="middle" font-family="Heiti SC, PingFang SC, sans-serif" font-size="34" fill="#516781">读取、恢复、fork 不重做历史</text>
<text x="600" y="1527" text-anchor="middle" font-family="Heiti SC, PingFang SC, sans-serif" font-size="34" fill="#516781">示意主线；后台作业和临时 diff 不是日志恢复对象</text>
<text x="600" y="1582" text-anchor="middle" font-family="Heiti SC, PingFang SC, sans-serif" font-size="34" fill="#657a92">研究基线 5badb15009ae · 机制示意，非全量调用图</text>
</svg>
