<svg xmlns="http://www.w3.org/2000/svg" width="1200" height="1730" viewBox="0 0 1200 1730">
<rect width="100%" height="100%" fill="#f6f8fb"/>
<text x="600" y="61" text-anchor="middle" font-family="Heiti SC, PingFang SC, sans-serif" font-size="34" fill="#516781">11 / 从源码理解 Agent Harness</text>
<text x="600" y="135" text-anchor="middle" font-family="Heiti SC, PingFang SC, sans-serif" font-size="52" fill="#182d49">上限约束不同执行对象</text>
<rect x="80" y="190" width="1040" height="154" rx="18" fill="white" stroke="#c5d1df" stroke-width="2"/>
<text x="600.0" y="258" text-anchor="middle" font-family="Heiti SC, PingFang SC, sans-serif" font-size="46" fill="#182d49">maxGoalRounds</text>
<text x="600.0" y="315" text-anchor="middle" font-family="Heiti SC, PingFang SC, sans-serif" font-size="34" fill="#516781">目标 driver 与 fold</text>
<rect x="80" y="403" width="1040" height="154" rx="18" fill="white" stroke="#c5d1df" stroke-width="2"/>
<text x="600.0" y="471" text-anchor="middle" font-family="Heiti SC, PingFang SC, sans-serif" font-size="46" fill="#182d49">已接纳自动回合</text>
<text x="600.0" y="528" text-anchor="middle" font-family="Heiti SC, PingFang SC, sans-serif" font-size="34" fill="#516781">不计同 Step 的多次 attempt</text>
<line x1="600" y1="354" x2="600" y2="393" stroke="#7390ac" stroke-width="4"/><polygon points="600,393 591,379 609,379" fill="#7390ac"/>
<rect x="80" y="650" width="1040" height="154" rx="18" fill="white" stroke="#c5d1df" stroke-width="2"/>
<text x="600.0" y="718" text-anchor="middle" font-family="Heiti SC, PingFang SC, sans-serif" font-size="46" fill="#182d49">normal maxRetries</text>
<text x="600.0" y="775" text-anchor="middle" font-family="Heiti SC, PingFang SC, sans-serif" font-size="34" fill="#516781">provider / policy 状态</text>
<rect x="80" y="863" width="1040" height="154" rx="18" fill="white" stroke="#c5d1df" stroke-width="2"/>
<text x="600.0" y="931" text-anchor="middle" font-family="Heiti SC, PingFang SC, sans-serif" font-size="46" fill="#182d49">该步骤请求恢复</text>
<text x="600.0" y="988" text-anchor="middle" font-family="Heiti SC, PingFang SC, sans-serif" font-size="34" fill="#516781">always 不受此次数条件约束</text>
<line x1="600" y1="814" x2="600" y2="853" stroke="#7390ac" stroke-width="4"/><polygon points="600,853 591,839 609,839" fill="#7390ac"/>
<rect x="80" y="1110" width="1040" height="154" rx="18" fill="white" stroke="#c5d1df" stroke-width="2"/>
<text x="600.0" y="1178" text-anchor="middle" font-family="Heiti SC, PingFang SC, sans-serif" font-size="46" fill="#182d49">maxTokens</text>
<text x="600.0" y="1235" text-anchor="middle" font-family="Heiti SC, PingFang SC, sans-serif" font-size="34" fill="#516781">本次模型请求</text>
<rect x="80" y="1323" width="1040" height="154" rx="18" fill="white" stroke="#c5d1df" stroke-width="2"/>
<text x="600.0" y="1391" text-anchor="middle" font-family="Heiti SC, PingFang SC, sans-serif" font-size="46" fill="#182d49">单次输出额度</text>
<text x="600.0" y="1448" text-anchor="middle" font-family="Heiti SC, PingFang SC, sans-serif" font-size="34" fill="#516781">不包含整个任务所有调用</text>
<line x1="600" y1="1274" x2="600" y2="1313" stroke="#7390ac" stroke-width="4"/><polygon points="600,1313 591,1299 609,1299" fill="#7390ac"/>
<text x="600" y="1604" text-anchor="middle" font-family="Heiti SC, PingFang SC, sans-serif" font-size="34" fill="#516781">摘要、委派和累计费用需要另设任务级口径</text>
<text x="600" y="1659" text-anchor="middle" font-family="Heiti SC, PingFang SC, sans-serif" font-size="34" fill="#657a92">研究基线 5badb15009ae · 机制示意，非全量调用图</text>
</svg>
